<svg xmlns="http://www.w3.org/2000/svg" viewBox="0 0 64 64" role="img" aria-label="CBDB 仕途流场">
  <defs>
    <linearGradient id="paper" x1="0" y1="0" x2="1" y2="1">
      <stop offset="0" stop-color="#fbfaf3"/>
      <stop offset="1" stop-color="#dfe7df"/>
    </linearGradient>
    <linearGradient id="flow" x1="10" y1="44" x2="54" y2="20">
      <stop offset="0" stop-color="#a64b3e"/>
      <stop offset=".55" stop-color="#a97834"/>
      <stop offset="1" stop-color="#2f6f64"/>
    </linearGradient>
  </defs>
  <rect width="64" height="64" rx="14" fill="#17201d"/>
  <rect x="7" y="7" width="50" height="50" rx="10" fill="url(#paper)"/>
  <path d="M18 44C28 27 38 23 49 17" fill="none" stroke="url(#flow)" stroke-width="5.2" stroke-linecap="round"/>
  <path d="M17 23c7-7 16-7 22-2 4 3 7 4 11 2" fill="none" stroke="#40566f" stroke-width="2.4" stroke-linecap="round" opacity=".75"/>
  <path d="M14 37c8-4 14-2 20 2 5 3 11 2 16-2" fill="none" stroke="#2f6f64" stroke-width="2.4" stroke-linecap="round" opacity=".72"/>
  <circle cx="18" cy="44" r="5.6" fill="#a64b3e"/>
  <circle cx="49" cy="17" r="5.6" fill="#2f6f64"/>
  <circle cx="32" cy="31" r="3.8" fill="#a97834"/>
  <path d="M48 17l-3.8 8.8 10-3.1z" fill="#2f6f64"/>
</svg>
